<svg width="129" height="48" viewBox="0 0 129 48" fill="none" xmlns="http://www.w3.org/2000/svg">
<g clip-path="url(#clip0_4090_197)">
<path fill-rule="evenodd" clip-rule="evenodd" d="M34.3224 20.6741C33.6646 20.2346 32.8912 20 32.1001 20V16C33.6823 16 35.2291 16.4692 36.5447 17.3482C37.8603 18.2273 38.8856 19.4767 39.4911 20.9385C40.0966 22.4003 40.2551 24.0089 39.9464 25.5607C39.6377 27.1126 38.8758 28.538 37.7569 29.6568C36.6381 30.7757 35.2127 31.5376 33.6608 31.8463C32.109 32.155 30.5004 31.9965 29.0386 31.391C27.5768 30.7855 26.3274 29.7602 25.4483 28.4446C24.5693 27.129 24.1001 25.5822 24.1001 24H28.1001C28.1001 24.7911 28.3347 25.5645 28.7742 26.2223C29.2137 26.8801 29.8385 27.3928 30.5694 27.6955C31.3003 27.9983 32.1045 28.0775 32.8805 27.9231C33.6564 27.7688 34.3691 27.3878 34.9285 26.8284C35.4879 26.269 35.8689 25.5563 36.0232 24.7804C36.1776 24.0044 36.0984 23.2002 35.7956 22.4693C35.4929 21.7384 34.9802 21.1136 34.3224 20.6741Z" fill="#AAD9D1"/>
<path fill-rule="evenodd" clip-rule="evenodd" d="M28.1001 16C28.1001 16.5253 27.9966 17.0454 27.7956 17.5307C27.5946 18.016 27.3 18.457 26.9285 18.8284C26.5571 19.1999 26.1161 19.4945 25.6308 19.6955C25.1455 19.8965 24.6254 20 24.1001 20L24.1001 24C25.1507 24 26.191 23.7931 27.1616 23.391C28.1322 22.989 29.0141 22.3997 29.7569 21.6568C30.4998 20.914 31.0891 20.0321 31.4911 19.0615C31.8932 18.0909 32.1001 17.0506 32.1001 16L28.1001 16Z" fill="#AAD9D1"/>
<path d="M74.3478 21.781H72.407V27.9459H74.3478V21.781Z" fill="#AAD9D1"/>
<path d="M72.6228 20.6266C72.8256 20.8296 73.0792 20.9311 73.3836 20.9311C73.688 20.9311 73.9376 20.8296 74.132 20.6266C74.3268 20.4152 74.424 20.1615 74.424 19.8655C74.424 19.5611 74.3268 19.3074 74.132 19.1044C73.9376 18.9015 73.688 18.8 73.3836 18.8C73.0792 18.8 72.8256 18.9015 72.6228 19.1044C72.428 19.3074 72.3308 19.5611 72.3308 19.8655C72.3308 20.1615 72.428 20.4152 72.6228 20.6266Z" fill="#AAD9D1"/>
<path d="M44.5625 27.9459V18.9903H46.5541V26.1954H50.5245V27.9459H44.5625Z" fill="#AAD9D1"/>
<path fill-rule="evenodd" clip-rule="evenodd" d="M54.111 28.0854C53.4768 28.0854 52.9017 27.9459 52.3859 27.6668C51.8785 27.3793 51.4768 26.9903 51.1808 26.4998C50.8848 26.0093 50.7368 25.4596 50.7368 24.8508C50.7368 24.2419 50.8848 23.6964 51.1808 23.2144C51.4768 22.7324 51.8785 22.3518 52.3859 22.0728C52.8933 21.7852 53.4683 21.6414 54.111 21.6414C54.7537 21.6414 55.3288 21.781 55.8362 22.06C56.3436 22.3391 56.7453 22.7239 57.0413 23.2144C57.3373 23.6964 57.4853 24.2419 57.4853 24.8508C57.4853 25.4596 57.3373 26.0093 57.0413 26.4998C56.7453 26.9903 56.3436 27.3793 55.8362 27.6668C55.3288 27.9459 54.7537 28.0854 54.111 28.0854ZM54.111 26.3222C54.3901 26.3222 54.6353 26.263 54.8468 26.1446C55.0582 26.0178 55.2189 25.8444 55.3288 25.6246C55.4472 25.3962 55.5064 25.1383 55.5064 24.8508C55.5064 24.5632 55.4472 24.3138 55.3288 24.1024C55.2104 23.8825 55.0455 23.7134 54.8341 23.595C54.6311 23.4681 54.3901 23.4047 54.111 23.4047C53.8404 23.4047 53.5994 23.4681 53.388 23.595C53.1766 23.7134 53.0117 23.8825 52.8933 24.1024C52.7749 24.3222 52.7157 24.5759 52.7157 24.8634C52.7157 25.1425 52.7749 25.3962 52.8933 25.6246C53.0117 25.8444 53.1766 26.0178 53.388 26.1446C53.5994 26.263 53.8404 26.3222 54.111 26.3222Z" fill="#AAD9D1"/>
<path fill-rule="evenodd" clip-rule="evenodd" d="M59.0224 30.3561C59.5383 30.5928 60.1345 30.7112 60.811 30.7112C61.4706 30.7112 62.0584 30.5802 62.5742 30.318C63.0901 30.0558 63.496 29.6922 63.792 29.2271C64.088 28.762 64.2362 28.2123 64.2362 27.578V21.781H62.3332V22.1952C62.1917 22.0761 62.031 21.9761 61.8512 21.8952C61.5214 21.7345 61.145 21.6541 60.7222 21.6541C60.1556 21.6541 59.6524 21.7894 59.2127 22.06C58.7729 22.3222 58.4262 22.6858 58.1725 23.151C57.9188 23.6076 57.792 24.1235 57.792 24.6986C57.792 25.2652 57.9188 25.781 58.1725 26.2461C58.4262 26.7112 58.7729 27.0791 59.2127 27.3497C59.6524 27.6203 60.1556 27.7556 60.7222 27.7556C61.1366 27.7556 61.5129 27.6753 61.8512 27.5146C62.015 27.4368 62.163 27.3451 62.2952 27.2394V27.6288C62.2952 28.0601 62.1556 28.3941 61.8766 28.6309C61.606 28.8677 61.2296 28.9861 60.7476 28.9861C60.3586 28.9861 60.0246 28.9184 59.7455 28.7831C59.4749 28.6478 59.2296 28.4491 59.0097 28.1869L57.8174 29.3793C58.1133 29.8022 58.515 30.1278 59.0224 30.3561ZM61.7878 25.8529C61.5932 25.9713 61.3607 26.0305 61.0901 26.0305C60.8195 26.0305 60.5827 25.9713 60.3797 25.8529C60.1852 25.7345 60.033 25.5738 59.9231 25.3708C59.8131 25.1594 59.7582 24.9353 59.7582 24.6986C59.7582 24.4448 59.8131 24.2165 59.9231 24.0136C60.033 23.8106 60.1894 23.6499 60.3924 23.5315C60.5954 23.4131 60.8279 23.3539 61.0901 23.3539C61.3607 23.3539 61.5932 23.4131 61.7878 23.5315C61.9907 23.6499 62.1429 23.8106 62.2444 24.0136C62.3544 24.2165 62.4093 24.4448 62.4093 24.6986C62.4093 24.9522 62.3544 25.1806 62.2444 25.3835C62.1429 25.578 61.9907 25.7345 61.7878 25.8529Z" fill="#AAD9D1"/>
<path fill-rule="evenodd" clip-rule="evenodd" d="M68.3204 28.0854C67.686 28.0854 67.1108 27.9459 66.5952 27.6668C66.0876 27.3793 65.686 26.9903 65.39 26.4998C65.094 26.0093 64.946 25.4596 64.946 24.8508C64.946 24.2419 65.094 23.6964 65.39 23.2144C65.686 22.7324 66.0876 22.3518 66.5952 22.0728C67.1024 21.7852 67.6776 21.6414 68.3204 21.6414C68.9628 21.6414 69.538 21.781 70.0452 22.06C70.5528 22.3391 70.9544 22.7239 71.2504 23.2144C71.5464 23.6964 71.6944 24.2419 71.6944 24.8508C71.6944 25.4596 71.5464 26.0093 71.2504 26.4998C70.9544 26.9903 70.5528 27.3793 70.0452 27.6668C69.538 27.9459 68.9628 28.0854 68.3204 28.0854ZM68.3204 26.3222C68.5992 26.3222 68.8444 26.263 69.056 26.1446C69.2672 26.0178 69.428 25.8444 69.538 25.6246C69.6564 25.3962 69.7156 25.1383 69.7156 24.8508C69.7156 24.5632 69.6564 24.3138 69.538 24.1024C69.4196 23.8825 69.2548 23.7134 69.0432 23.595C68.8404 23.4681 68.5992 23.4047 68.3204 23.4047C68.0496 23.4047 67.8084 23.4681 67.5972 23.595C67.3856 23.7134 67.2208 23.8825 67.1024 24.1024C66.984 24.3222 66.9248 24.5759 66.9248 24.8634C66.9248 25.1425 66.984 25.3962 67.1024 25.6246C67.2208 25.8444 67.3856 26.0178 67.5972 26.1446C67.8084 26.263 68.0496 26.3222 68.3204 26.3222Z" fill="#AAD9D1"/>
<path fill-rule="evenodd" clip-rule="evenodd" d="M79.0125 28.0728C78.5985 28.0728 78.2177 27.9924 77.8709 27.8318C77.6885 27.7472 77.5237 27.6462 77.3765 27.5289V30.5464H75.4609V21.781H77.4017V22.2065C77.5425 22.0913 77.6989 21.9918 77.8709 21.9078C78.2177 21.7387 78.5985 21.6541 79.0125 21.6541C79.5961 21.6541 80.1121 21.7937 80.5601 22.0728C81.0169 22.3518 81.3721 22.7324 81.6257 23.2144C81.8881 23.6964 82.0189 24.2461 82.0189 24.8634C82.0189 25.4808 81.8881 26.0305 81.6257 26.5125C81.3721 26.9946 81.0169 27.3751 80.5601 27.6542C80.1121 27.9332 79.5961 28.0728 79.0125 28.0728ZM78.6577 26.3222C78.9365 26.3222 79.1777 26.2588 79.3805 26.132C79.5921 26.0051 79.7569 25.8317 79.8753 25.6119C79.9937 25.392 80.0529 25.1425 80.0529 24.8634C80.0529 24.5759 79.9937 24.3222 79.8753 24.1024C79.7569 23.8825 79.5921 23.7134 79.3805 23.595C79.1777 23.4681 78.9409 23.4047 78.6701 23.4047C78.3997 23.4047 78.1585 23.4681 77.9473 23.595C77.7441 23.7134 77.5837 23.8825 77.4653 24.1024C77.3469 24.3222 77.2877 24.5759 77.2877 24.8634C77.2877 25.1425 77.3425 25.392 77.4525 25.6119C77.5709 25.8317 77.7357 26.0051 77.9473 26.132C78.1585 26.2588 78.3953 26.3222 78.6577 26.3222Z" fill="#AAD9D1"/>
<path d="M83.9184 27.9586C84.2736 28.0516 84.6328 28.0981 84.9964 28.0981C85.766 28.0981 86.3748 27.9206 86.8232 27.5654C87.2796 27.2102 87.508 26.7324 87.508 26.132C87.508 25.743 87.4364 25.43 87.2924 25.1933C87.1488 24.948 86.9628 24.7535 86.7344 24.6098C86.506 24.466 86.2648 24.3518 86.0112 24.2672C85.7576 24.1827 85.5164 24.1108 85.2884 24.0516C85.06 23.9924 84.874 23.9248 84.73 23.8486C84.5864 23.7725 84.5144 23.671 84.5144 23.5442C84.5144 23.4258 84.5696 23.337 84.6792 23.2778C84.7892 23.2102 84.954 23.1764 85.174 23.1764C85.4024 23.1764 85.6348 23.2228 85.8716 23.3159C86.1168 23.4089 86.3368 23.5696 86.5312 23.7979L87.6348 22.6816C87.356 22.3264 86.9924 22.06 86.544 21.8825C86.1044 21.6964 85.6224 21.6034 85.098 21.6034C84.5992 21.6034 84.1636 21.688 83.7916 21.8571C83.4192 22.0262 83.1316 22.2588 82.9288 22.5548C82.726 22.8423 82.6244 23.1848 82.6244 23.5823C82.6244 23.9544 82.6964 24.263 82.84 24.5083C82.9836 24.745 83.17 24.9311 83.398 25.0664C83.6264 25.2017 83.8676 25.3074 84.1212 25.3835C84.3748 25.4596 84.616 25.5315 84.8444 25.5992C85.0724 25.6584 85.2588 25.7303 85.4024 25.8148C85.5548 25.891 85.6308 26.0051 85.6308 26.1573C85.6308 26.2757 85.5672 26.3687 85.4404 26.4364C85.322 26.504 85.1488 26.5379 84.9204 26.5379C84.5904 26.5379 84.286 26.4787 84.0072 26.3603C83.728 26.2334 83.4868 26.0601 83.284 25.8402L82.1804 26.9565C82.392 27.1848 82.6456 27.3878 82.9416 27.5654C83.246 27.7345 83.5716 27.8656 83.9184 27.9586Z" fill="#AAD9D1"/>
<path d="M91.0473 28.0854C90.4809 28.0854 89.9777 27.9713 89.5381 27.743C89.1065 27.5062 88.7685 27.1848 88.5233 26.7789C88.2777 26.3645 88.1553 25.891 88.1553 25.3582V21.781H90.0961V25.3328C90.0961 25.5442 90.1297 25.726 90.1977 25.8782C90.2737 26.0305 90.3837 26.1489 90.5273 26.2334C90.6713 26.318 90.8445 26.3603 91.0473 26.3603C91.3349 26.3603 91.5633 26.2715 91.7325 26.0939C91.9017 25.9078 91.9861 25.6542 91.9861 25.3328V21.781H93.9269V25.3455C93.9269 25.8867 93.8045 26.3645 93.5589 26.7789C93.3137 27.1848 92.9757 27.5062 92.5441 27.743C92.1129 27.9713 91.6141 28.0854 91.0473 28.0854Z" fill="#AAD9D1"/>
<path d="M96.8324 21.781H94.8916V27.9459H96.8324V24.3434C96.8324 24.132 96.8748 23.9544 96.9592 23.8106C97.0524 23.6668 97.1752 23.5569 97.3272 23.4808C97.4796 23.3962 97.6528 23.3539 97.8472 23.3539C98.1264 23.3539 98.3588 23.4427 98.5448 23.6203C98.7396 23.7894 98.8368 24.0305 98.8368 24.3434V27.9459H100.778V24.3434C100.778 24.132 100.82 23.9544 100.904 23.8106C100.998 23.6668 101.12 23.5569 101.272 23.4808C101.424 23.3962 101.598 23.3539 101.792 23.3539C102.072 23.3539 102.304 23.4427 102.49 23.6203C102.684 23.7894 102.782 24.0305 102.782 24.3434V27.9459H104.723V24.1277C104.723 23.6119 104.613 23.1721 104.393 22.8085C104.181 22.4364 103.89 22.1531 103.518 21.9586C103.154 21.7556 102.735 21.6541 102.262 21.6541C101.78 21.6541 101.344 21.7598 100.955 21.9713C100.702 22.106 100.482 22.2798 100.292 22.4928C100.116 22.27 99.9016 22.0877 99.6484 21.9459C99.3104 21.7514 98.9256 21.6541 98.4944 21.6541C98.0376 21.6541 97.6276 21.7514 97.264 21.9459C97.1056 22.0268 96.962 22.1237 96.8324 22.2366V21.781Z" fill="#AAD9D1"/>
</g>
<defs>
<clipPath id="clip0_4090_197">
<rect width="80.8" height="16" fill="white" transform="translate(24.1001 16)"/>
</clipPath>
</defs>
</svg>
