<svg width="137" height="48" viewBox="0 0 137 48" fill="none" xmlns="http://www.w3.org/2000/svg">
<g clip-path="url(#clip0_4090_184)">
<path d="M73.842 27.8095H75.7072V20.7741H73.842V27.8095ZM73.842 19.677H75.7072V18.0038H73.842V19.677Z" fill="#AAD9D1"/>
<path d="M76.9092 30.1135H78.7744V27.0141H78.8016C79.1992 27.6175 79.844 28.0152 80.8312 28.0152C82.6416 28.0152 83.876 26.5752 83.876 24.2987C83.876 22.1044 82.6828 20.5821 80.8176 20.5821C79.8576 20.5821 79.1992 21.0347 78.7468 21.6518H78.7056V20.7741H76.9092V30.1135ZM80.4336 26.4655C79.3228 26.4655 78.7332 25.629 78.7332 24.3535C78.7332 23.0918 79.1992 22.0907 80.3652 22.0907C81.5172 22.0907 81.9832 23.0232 81.9832 24.3535C81.9832 25.6838 81.38 26.4655 80.4336 26.4655Z" fill="#AAD9D1"/>
<path d="M87.5964 28.0152C89.352 28.0152 90.5588 27.165 90.5588 25.7524C90.5588 24.1067 89.256 23.7775 88.0764 23.5307C87.0752 23.325 86.1428 23.2701 86.1428 22.6667C86.1428 22.1592 86.6228 21.885 87.3496 21.885C88.1452 21.885 88.6252 22.1592 88.7072 22.9135H90.394C90.2572 21.501 89.2284 20.5821 87.3772 20.5821C85.7724 20.5821 84.5108 21.309 84.5108 22.8312C84.5108 24.3672 85.7452 24.7101 87.0068 24.957C87.9668 25.149 88.858 25.2175 88.858 25.8895C88.858 26.3832 88.392 26.6987 87.5692 26.6987C86.7324 26.6987 86.1564 26.3421 86.0332 25.533H84.3052C84.4148 27.0278 85.5532 28.0152 87.5964 28.0152Z" fill="#AAD9D1"/>
<path d="M97.64 27.8095V20.7741H95.7748V24.8335C95.7748 25.7661 95.24 26.4244 94.3624 26.4244C93.5668 26.4244 93.1968 25.9718 93.1968 25.149V20.7741H91.3452V25.4644C91.3452 27.0004 92.2228 28.0015 93.7864 28.0015C94.774 28.0015 95.3224 27.6312 95.8024 26.9867H95.8436V27.8095H97.64Z" fill="#AAD9D1"/>
<path d="M98.8464 27.8095H100.712V23.7227C100.712 22.7901 101.219 22.1867 101.974 22.1867C102.659 22.1867 103.057 22.5981 103.057 23.3935V27.8095H104.922V23.7227C104.922 22.7901 105.402 22.1867 106.184 22.1867C106.87 22.1867 107.267 22.5981 107.267 23.3935V27.8095H109.132V23.0781C109.132 21.5421 108.296 20.5821 106.814 20.5821C105.923 20.5821 105.182 21.0484 104.702 21.8164H104.675C104.332 21.0758 103.619 20.5821 102.728 20.5821C101.754 20.5821 101.068 21.0758 100.684 21.7204H100.643V20.7741H98.8464V27.8095Z" fill="#AAD9D1"/>
<path d="M25.2297 27.8095H27.0949V18.0038H25.2297V27.8095Z" fill="#AAD9D1"/>
<path d="M31.6554 28.0152C33.836 28.0152 35.3308 26.397 35.3308 24.2987C35.3308 22.2004 33.836 20.5821 31.6554 20.5821C29.4748 20.5821 27.98 22.2004 27.98 24.2987C27.98 26.397 29.4748 28.0152 31.6554 28.0152ZM31.6554 26.589C30.5034 26.589 29.8725 25.6701 29.8725 24.2987C29.8725 22.9272 30.5034 21.9947 31.6554 21.9947C32.7937 21.9947 33.4383 22.9272 33.4383 24.2987C33.4383 25.6701 32.7937 26.589 31.6554 26.589Z" fill="#AAD9D1"/>
<path d="M39.2973 30.2095C40.3395 30.2095 41.2447 29.9627 41.8344 29.4141C42.3555 28.9341 42.671 28.2621 42.671 27.2747V20.7741H40.8744V21.5147H40.847C40.4218 20.925 39.7773 20.5821 38.8995 20.5821C37.1167 20.5821 35.855 21.9261 35.855 24.0244C35.855 26.1501 37.391 27.3844 38.9544 27.3844C39.8458 27.3844 40.3807 27.0278 40.7921 26.5615H40.8333V27.3295C40.8333 28.2895 40.3258 28.797 39.2698 28.797C38.4058 28.797 38.0081 28.4541 37.8573 28.0152H36.0058C36.1978 29.3867 37.3773 30.2095 39.2973 30.2095ZM39.2698 25.8895C38.3098 25.8895 37.679 25.1901 37.679 23.997C37.679 22.8175 38.3098 22.077 39.2561 22.077C40.3807 22.077 40.9293 22.9547 40.9293 23.9832C40.9293 25.0255 40.4493 25.8895 39.2698 25.8895Z" fill="#AAD9D1"/>
<path d="M47.2045 28.0152C49.3851 28.0152 50.8799 26.397 50.8799 24.2987C50.8799 22.2004 49.3851 20.5821 47.2045 20.5821C45.0239 20.5821 43.5291 22.2004 43.5291 24.2987C43.5291 26.397 45.0239 28.0152 47.2045 28.0152ZM47.2045 26.589C46.0525 26.589 45.4217 25.6701 45.4217 24.2987C45.4217 22.9272 46.0525 21.9947 47.2045 21.9947C48.3428 21.9947 48.9874 22.9272 48.9874 24.2987C48.9874 25.6701 48.3428 26.589 47.2045 26.589Z" fill="#AAD9D1"/>
<path d="M109.81 19.6191C109.81 19.3035 110.066 19.0476 110.382 19.0476H111.524C111.84 19.0476 112.096 19.3035 112.096 19.6191C112.096 19.9346 111.84 20.1905 111.524 20.1905H110.382C110.066 20.1905 109.81 19.9346 109.81 19.6191Z" fill="#AAD9D1"/>
<path fill-rule="evenodd" clip-rule="evenodd" d="M62.1912 16C66.6093 16 70.1913 19.5817 70.1913 24C70.1913 28.4183 66.6093 32 62.1912 32C57.7729 32 54.1912 28.4183 54.1912 24C54.1912 19.5817 57.7729 16 62.1912 16ZM61.902 16.5986C60.9893 16.7271 60.1203 17.4604 59.4457 18.687C59.25 19.0427 59.0734 19.4358 58.9196 19.8602C59.8369 19.6297 60.8445 19.4938 61.902 19.4727V16.5986ZM58.2434 20.0523C58.4348 19.4518 58.6688 18.8994 58.939 18.4083C59.2734 17.8002 59.6702 17.2752 60.1174 16.8719C57.6858 17.5781 55.7692 19.4947 55.063 21.9263C55.4663 21.4791 55.9914 21.0822 56.5994 20.7478C57.0905 20.4777 57.643 20.2436 58.2434 20.0523ZM58.0513 20.7284C57.8208 21.6457 57.6849 22.6534 57.6639 23.7108H54.7898C54.9182 22.7982 55.6516 21.9291 56.8781 21.2546C57.2339 21.0589 57.6269 20.8823 58.0513 20.7284ZM58.2423 23.7108C58.2662 22.5568 58.4324 21.4734 58.7072 20.5161C59.6645 20.2412 60.748 20.075 61.902 20.0512V21.3003C61.4715 22.4025 60.5934 23.2805 59.4912 23.7108H58.2423ZM57.6639 24.2892H54.7898C54.9182 25.2018 55.6516 26.0708 56.8781 26.7454C57.2339 26.9411 57.6269 27.1177 58.0513 27.2716C57.8208 26.3543 57.6849 25.3466 57.6639 24.2892ZM58.7072 27.4839C58.4324 26.5266 58.2662 25.4432 58.2423 24.2892H59.4912C60.5934 24.7195 61.4715 25.5975 61.902 26.6997V27.9488C60.748 27.925 59.6645 27.7588 58.7072 27.4839ZM58.2434 27.9477C57.643 27.7564 57.0905 27.5223 56.5994 27.2522C55.9914 26.9178 55.4663 26.5209 55.063 26.0737C55.7692 28.5053 57.6858 30.4219 60.1174 31.1281C59.6702 30.7248 59.2734 30.1998 58.939 29.5917C58.6688 29.1006 58.4348 28.5482 58.2434 27.9477ZM61.902 31.4014C60.9893 31.2729 60.1203 30.5396 59.4457 29.313C59.25 28.9573 59.0734 28.5642 58.9196 28.1398C59.8369 28.3703 60.8445 28.5062 61.902 28.5272V31.4014ZM64.2649 31.1281C64.712 30.7248 65.1089 30.1998 65.4433 29.5917C65.7133 29.1006 65.9477 28.5482 66.1389 27.9477C66.7393 27.7564 67.2917 27.5223 67.7829 27.2522C68.3909 26.9178 68.9161 26.5209 69.3193 26.0737C68.6129 28.5053 66.6965 30.4219 64.2649 31.1281ZM65.4629 28.1398C65.3089 28.5642 65.1321 28.9573 64.9365 29.313C64.262 30.5396 63.393 31.2729 62.4803 31.4014V28.5272C63.5378 28.5062 64.5454 28.3703 65.4629 28.1398ZM66.3309 27.2716C66.7553 27.1177 67.1485 26.9411 67.5041 26.7454C68.7309 26.0709 69.4641 25.2018 69.5925 24.2892H66.7185C66.6973 25.3466 66.5613 26.3543 66.3309 27.2716ZM66.1401 24.2892C66.1161 25.4432 65.9501 26.5266 65.6749 27.4839C64.7178 27.7588 63.6343 27.925 62.4803 27.9488V26.7006C62.9107 25.598 63.789 24.7196 64.8914 24.2892H66.1401ZM66.7185 23.7108H69.5925C69.4641 22.7982 68.7309 21.9291 67.5041 21.2546C67.1485 21.0589 66.7553 20.8823 66.3309 20.7284C66.5613 21.6457 66.6973 22.6534 66.7185 23.7108ZM65.6749 20.5161C65.9501 21.4734 66.1161 22.5568 66.1401 23.7108H64.8915C63.789 23.2804 62.9107 22.402 62.4803 21.2994V20.0512C63.6343 20.075 64.7178 20.2412 65.6749 20.5161ZM66.1389 20.0523C66.7393 20.2436 67.2917 20.4777 67.7829 20.7478C68.3909 21.0822 68.9161 21.4791 69.3193 21.9263C68.6129 19.4947 66.6965 17.5781 64.2649 16.8719C64.712 17.2752 65.1089 17.8002 65.4433 18.4083C65.7133 18.8994 65.9477 19.4518 66.1389 20.0523ZM62.4803 16.5986C63.393 16.7271 64.262 17.4604 64.9365 18.687C65.1321 19.0427 65.3089 19.4358 65.4629 19.8602C64.5454 19.6297 63.5378 19.4938 62.4803 19.4727V16.5986Z" fill="#AAD9D1"/>
</g>
<defs>
<clipPath id="clip0_4090_184">
<rect width="87.2" height="16" fill="white" transform="translate(24.9 16)"/>
</clipPath>
</defs>
</svg>
