<svg width="136" height="48" viewBox="0 0 136 48" fill="none" xmlns="http://www.w3.org/2000/svg">
<g clip-path="url(#clip0_4090_211)">
<path d="M32.809 32C37.1772 32 40.7181 28.4184 40.7181 24V18.4C40.7181 17.7635 40.4681 17.153 40.0232 16.7029C39.5782 16.2529 38.9747 16 38.3454 16H33.2045V19.5096C33.2045 20.3104 33.2527 21.14 33.668 21.8216C33.9652 22.3101 34.3629 22.7282 34.8339 23.0475C35.305 23.3669 35.8385 23.58 36.3982 23.6724L36.5496 23.6972C36.6121 23.7188 36.6663 23.7596 36.7047 23.8139C36.743 23.8682 36.7637 23.9333 36.7637 24C36.7637 24.0667 36.743 24.1318 36.7047 24.1861C36.6663 24.2404 36.6121 24.2812 36.5496 24.3028L36.3982 24.3276C35.5804 24.4627 34.8253 24.8542 34.2394 25.4468C33.6535 26.0395 33.2665 26.8033 33.1329 27.6304L33.1084 27.7836C33.087 27.8468 33.0467 27.9016 32.993 27.9404C32.9393 27.9792 32.875 28.0001 32.809 28.0001C32.743 28.0001 32.6787 27.9792 32.625 27.9404C32.5713 27.9016 32.531 27.8468 32.5097 27.7836L32.4851 27.6304C32.3937 27.0643 32.183 26.5247 31.8673 26.0482C31.5516 25.5717 31.1383 25.1695 30.6554 24.8688C29.9815 24.4488 29.1614 24.4 28.3697 24.4H24.9094C25.1162 28.6324 28.5737 32 32.809 32Z" fill="#AAD9D1"/>
<path d="M24.8999 23.6H28.3696C29.1613 23.6 29.9815 23.5512 30.6553 23.1312C31.1821 22.8029 31.6255 22.3544 31.9501 21.8216C32.3653 21.14 32.4135 20.3104 32.4135 19.5096V16H27.2726C26.6433 16 26.0398 16.2529 25.5949 16.7029C25.1499 17.153 24.8999 17.7635 24.8999 18.4V23.6ZM43.2707 16.8C43.2707 17.0122 43.1874 17.2157 43.0391 17.3657C42.8908 17.5157 42.6896 17.6 42.4798 17.6C42.2701 17.6 42.0689 17.5157 41.9206 17.3657C41.7723 17.2157 41.6889 17.0122 41.6889 16.8C41.6889 16.5878 41.7723 16.3843 41.9206 16.2343C42.0689 16.0843 42.2701 16 42.4798 16C42.6896 16 42.8908 16.0843 43.0391 16.2343C43.1874 16.3843 43.2707 16.5878 43.2707 16.8ZM108.622 20.8416C110.833 20.8416 111.9 22.4036 111.9 24.2128V27.6108H109.586V24.616C109.586 23.796 109.29 23.1192 108.442 23.1192C107.594 23.1192 107.311 23.796 107.311 24.616V27.6104H104.997V24.616C104.997 23.796 104.715 23.1192 103.866 23.1192C103.018 23.1192 102.722 23.796 102.722 24.616V27.6104H100.408V24.2124C100.408 22.4032 101.475 20.8412 103.686 20.8412C104.894 20.8412 105.768 21.3228 106.167 22.1168C106.591 21.3228 107.517 20.8408 108.622 20.8408V20.8416ZM96.2506 25.528C96.996 25.528 97.3175 24.838 97.3175 24.0176V21.1016H99.6309V24.304C99.6309 26.2176 98.5256 27.806 96.2506 27.806C93.9751 27.806 92.8698 26.218 92.8698 24.304V21.1016H95.1836V24.0176C95.1836 24.8376 95.5048 25.528 96.2506 25.528ZM89.4677 27.8188C88.0152 27.8188 87.0768 27.3112 86.524 26.322L88.1952 25.3716C88.4265 25.788 88.7733 25.9964 89.3519 25.9964C89.8276 25.9964 90.0459 25.8272 90.0459 25.6188C90.0459 24.8248 86.6525 25.632 86.6525 23.1068C86.6525 21.8828 87.6807 20.8936 89.429 20.8936C90.9586 20.8936 91.7942 21.6484 92.1671 22.3776L90.4959 23.3408C90.3548 22.9504 89.9174 22.716 89.4804 22.716C89.1462 22.716 88.9663 22.8592 88.9663 23.0544C88.9663 23.8616 92.3597 23.1196 92.3597 25.5668C92.3597 26.9336 91.0357 27.8188 89.4677 27.8188ZM81.3839 30.6048H79.0701V24.3432C79.0701 22.3512 80.5483 20.9064 82.605 20.9064C84.6104 20.9064 86.14 22.4556 86.14 24.3432C86.14 26.426 84.7773 27.806 82.7336 27.806C82.2578 27.806 81.7825 27.6628 81.3839 27.4412V30.6048ZM82.605 25.606C83.3378 25.606 83.8262 25.0332 83.8262 24.356C83.8262 23.6664 83.3378 23.1064 82.605 23.1064C81.8722 23.1064 81.3839 23.6664 81.3839 24.3564C81.3839 25.0332 81.8722 25.606 82.605 25.606ZM76.7523 20.412C75.9938 20.412 75.3643 19.774 75.3643 19.006C75.3643 18.238 75.9938 17.6 76.7523 17.6C77.5108 17.6 78.1407 18.238 78.1407 19.006C78.1407 19.774 77.5108 20.412 76.7523 20.412ZM75.5956 21.1016H77.9094V27.6108H75.5956V21.1016ZM71.1562 27.806C69.1509 27.806 67.6213 26.244 67.6213 24.3432C67.6213 22.4556 69.1509 20.8936 71.1562 20.8936C73.1616 20.8936 74.6912 22.4556 74.6912 24.3432C74.6912 26.244 73.1616 27.806 71.1562 27.806ZM71.1562 25.606C71.889 25.606 72.3774 25.0332 72.3774 24.356C72.3774 23.6664 71.889 23.0936 71.1562 23.0936C70.4234 23.0936 69.9351 23.6664 69.9351 24.356C69.9351 25.0332 70.4234 25.606 71.1562 25.606ZM63.2523 30.8C61.6586 30.8 60.5015 30.084 59.9103 28.808L61.8255 27.7668C62.0311 28.2096 62.4167 28.6652 63.2135 28.6652C64.0495 28.6652 64.602 28.1312 64.6664 27.194C64.358 27.4676 63.8692 27.6756 63.1368 27.6756C61.3497 27.6756 59.9099 26.2828 59.9099 24.33C59.9099 22.4428 61.4399 20.9064 63.4453 20.9064C65.502 20.9064 66.9802 22.3516 66.9802 24.3432V26.9208C66.9802 29.264 65.3731 30.8 63.2523 30.8ZM63.4065 25.476C64.1005 25.476 64.6277 24.994 64.6277 24.278C64.6277 23.5752 64.1009 23.1064 63.4065 23.1064C62.7251 23.1064 62.1853 23.5752 62.1853 24.2784C62.1853 24.9944 62.7251 25.4756 63.4065 25.4756V25.476ZM55.9854 27.806C53.98 27.806 52.45 26.244 52.45 24.3432C52.45 22.4556 53.98 20.8936 55.9854 20.8936C57.9904 20.8936 59.5204 22.4556 59.5204 24.3432C59.5204 26.244 57.9907 27.806 55.9854 27.806ZM55.9854 25.606C56.7182 25.606 57.2066 25.0332 57.2066 24.356C57.2066 23.6664 56.7182 23.0936 55.9854 23.0936C55.2526 23.0936 54.7642 23.6664 54.7642 24.356C54.7642 25.0332 55.2526 25.606 55.9854 25.606ZM48.2369 18.824V25.3976H52.0676V27.6108H47.9154C46.4502 27.6108 45.859 26.8296 45.859 25.5928V18.824H48.2369Z" fill="#AAD9D1"/>
</g>
<defs>
<clipPath id="clip0_4090_211">
<rect width="87" height="16" fill="white" transform="translate(24.8999 16)"/>
</clipPath>
</defs>
</svg>
