<svg width="130" height="48" viewBox="0 0 130 48" fill="none" xmlns="http://www.w3.org/2000/svg">
<g clip-path="url(#clip0_4090_215)">
<path fill-rule="evenodd" clip-rule="evenodd" d="M35.1222 20.6741C34.4644 20.2346 33.691 20 32.8999 20V16C34.4821 16 36.0289 16.4692 37.3445 17.3482C38.6601 18.2273 39.6854 19.4767 40.2909 20.9385C40.8964 22.4003 41.0549 24.0089 40.7462 25.5607C40.4375 27.1126 39.6756 28.538 38.5567 29.6568C37.4379 30.7757 36.0125 31.5376 34.4606 31.8463C32.9088 32.155 31.3002 31.9965 29.8384 31.391C28.3766 30.7855 27.1272 29.7602 26.2481 28.4446C25.3691 27.129 24.8999 25.5822 24.8999 24H28.8999C28.8999 24.7911 29.1345 25.5645 29.574 26.2223C30.0135 26.8801 30.6383 27.3928 31.3692 27.6955C32.1001 27.9983 32.9043 28.0775 33.6803 27.9231C34.4562 27.7688 35.1689 27.3878 35.7283 26.8284C36.2877 26.269 36.6687 25.5563 36.823 24.7804C36.9774 24.0044 36.8982 23.2002 36.5954 22.4693C36.2927 21.7384 35.78 21.1136 35.1222 20.6741Z" fill="#AAD9D1"/>
<path fill-rule="evenodd" clip-rule="evenodd" d="M28.8999 16C28.8999 16.5253 28.7964 17.0454 28.5954 17.5307C28.3944 18.016 28.0998 18.457 27.7283 18.8284C27.3569 19.1999 26.9159 19.4945 26.4306 19.6955C25.9453 19.8965 25.4252 20 24.8999 20L24.8999 24C25.9505 24 26.9908 23.7931 27.9614 23.391C28.932 22.989 29.8139 22.3997 30.5567 21.6568C31.2996 20.914 31.8889 20.0321 32.2909 19.0615C32.693 18.0909 32.8999 17.0506 32.8999 16L28.8999 16Z" fill="#AAD9D1"/>
<path d="M75.1476 21.781H73.2068V27.9459H75.1476V21.781Z" fill="#AAD9D1"/>
<path d="M73.4226 20.6266C73.6254 20.8296 73.879 20.9311 74.1834 20.9311C74.4878 20.9311 74.7374 20.8296 74.9318 20.6266C75.1266 20.4152 75.2238 20.1615 75.2238 19.8655C75.2238 19.5611 75.1266 19.3074 74.9318 19.1044C74.7374 18.9015 74.4878 18.8 74.1834 18.8C73.879 18.8 73.6254 18.9015 73.4226 19.1044C73.2278 19.3074 73.1306 19.5611 73.1306 19.8655C73.1306 20.1615 73.2278 20.4152 73.4226 20.6266Z" fill="#AAD9D1"/>
<path d="M45.3623 27.9459V18.9903H47.3539V26.1954H51.3243V27.9459H45.3623Z" fill="#AAD9D1"/>
<path fill-rule="evenodd" clip-rule="evenodd" d="M54.9108 28.0854C54.2766 28.0854 53.7015 27.9459 53.1857 27.6668C52.6783 27.3793 52.2766 26.9903 51.9806 26.4998C51.6846 26.0093 51.5366 25.4596 51.5366 24.8508C51.5366 24.2419 51.6846 23.6964 51.9806 23.2144C52.2766 22.7324 52.6783 22.3518 53.1857 22.0728C53.6931 21.7852 54.2681 21.6414 54.9108 21.6414C55.5535 21.6414 56.1286 21.781 56.636 22.06C57.1434 22.3391 57.5451 22.7239 57.8411 23.2144C58.1371 23.6964 58.2851 24.2419 58.2851 24.8508C58.2851 25.4596 58.1371 26.0093 57.8411 26.4998C57.5451 26.9903 57.1434 27.3793 56.636 27.6668C56.1286 27.9459 55.5535 28.0854 54.9108 28.0854ZM54.9108 26.3222C55.1899 26.3222 55.4351 26.263 55.6466 26.1446C55.858 26.0178 56.0187 25.8444 56.1286 25.6246C56.247 25.3962 56.3062 25.1383 56.3062 24.8508C56.3062 24.5632 56.247 24.3138 56.1286 24.1024C56.0102 23.8825 55.8453 23.7134 55.6339 23.595C55.4309 23.4681 55.1899 23.4047 54.9108 23.4047C54.6402 23.4047 54.3992 23.4681 54.1878 23.595C53.9764 23.7134 53.8115 23.8825 53.6931 24.1024C53.5747 24.3222 53.5155 24.5759 53.5155 24.8634C53.5155 25.1425 53.5747 25.3962 53.6931 25.6246C53.8115 25.8444 53.9764 26.0178 54.1878 26.1446C54.3992 26.263 54.6402 26.3222 54.9108 26.3222Z" fill="#AAD9D1"/>
<path fill-rule="evenodd" clip-rule="evenodd" d="M59.8222 30.3561C60.3381 30.5928 60.9343 30.7112 61.6108 30.7112C62.2704 30.7112 62.8582 30.5802 63.374 30.318C63.8899 30.0558 64.2958 29.6922 64.5918 29.2271C64.8878 28.762 65.036 28.2123 65.036 27.578V21.781H63.133V22.1952C62.9915 22.0761 62.8308 21.9761 62.651 21.8952C62.3212 21.7345 61.9448 21.6541 61.522 21.6541C60.9554 21.6541 60.4522 21.7894 60.0125 22.06C59.5727 22.3222 59.226 22.6858 58.9723 23.151C58.7186 23.6076 58.5918 24.1235 58.5918 24.6986C58.5918 25.2652 58.7186 25.781 58.9723 26.2461C59.226 26.7112 59.5727 27.0791 60.0125 27.3497C60.4522 27.6203 60.9554 27.7556 61.522 27.7556C61.9364 27.7556 62.3127 27.6753 62.651 27.5146C62.8148 27.4368 62.9628 27.3451 63.095 27.2394V27.6288C63.095 28.0601 62.9554 28.3941 62.6764 28.6309C62.4058 28.8677 62.0294 28.9861 61.5474 28.9861C61.1584 28.9861 60.8244 28.9184 60.5453 28.7831C60.2747 28.6478 60.0294 28.4491 59.8095 28.1869L58.6172 29.3793C58.9131 29.8022 59.3148 30.1278 59.8222 30.3561ZM62.5876 25.8529C62.393 25.9713 62.1605 26.0305 61.8899 26.0305C61.6193 26.0305 61.3825 25.9713 61.1795 25.8529C60.985 25.7345 60.8328 25.5738 60.7229 25.3708C60.6129 25.1594 60.558 24.9353 60.558 24.6986C60.558 24.4448 60.6129 24.2165 60.7229 24.0136C60.8328 23.8106 60.9892 23.6499 61.1922 23.5315C61.3952 23.4131 61.6277 23.3539 61.8899 23.3539C62.1605 23.3539 62.393 23.4131 62.5876 23.5315C62.7905 23.6499 62.9427 23.8106 63.0442 24.0136C63.1542 24.2165 63.2091 24.4448 63.2091 24.6986C63.2091 24.9522 63.1542 25.1806 63.0442 25.3835C62.9427 25.578 62.7905 25.7345 62.5876 25.8529Z" fill="#AAD9D1"/>
<path fill-rule="evenodd" clip-rule="evenodd" d="M69.1203 28.0854C68.4859 28.0854 67.9107 27.9459 67.3951 27.6668C66.8875 27.3793 66.4858 26.9903 66.1898 26.4998C65.8938 26.0093 65.7458 25.4596 65.7458 24.8508C65.7458 24.2419 65.8938 23.6964 66.1898 23.2144C66.4858 22.7324 66.8875 22.3518 67.3951 22.0728C67.9023 21.7852 68.4775 21.6414 69.1203 21.6414C69.7627 21.6414 70.3379 21.781 70.8451 22.06C71.3527 22.3391 71.7543 22.7239 72.0503 23.2144C72.3463 23.6964 72.4943 24.2419 72.4943 24.8508C72.4943 25.4596 72.3463 26.0093 72.0503 26.4998C71.7543 26.9903 71.3527 27.3793 70.8451 27.6668C70.3379 27.9459 69.7627 28.0854 69.1203 28.0854ZM69.1203 26.3222C69.3991 26.3222 69.6443 26.263 69.8559 26.1446C70.0671 26.0178 70.2279 25.8444 70.3379 25.6246C70.4563 25.3962 70.5155 25.1383 70.5155 24.8508C70.5155 24.5632 70.4563 24.3138 70.3379 24.1024C70.2195 23.8825 70.0547 23.7134 69.8431 23.595C69.6403 23.4681 69.3991 23.4047 69.1203 23.4047C68.8495 23.4047 68.6082 23.4681 68.397 23.595C68.1854 23.7134 68.0206 23.8825 67.9022 24.1024C67.7838 24.3222 67.7246 24.5759 67.7246 24.8634C67.7246 25.1425 67.7838 25.3962 67.9022 25.6246C68.0206 25.8444 68.1854 26.0178 68.397 26.1446C68.6082 26.263 68.8495 26.3222 69.1203 26.3222Z" fill="#AAD9D1"/>
<path fill-rule="evenodd" clip-rule="evenodd" d="M79.8123 28.0728C79.3983 28.0728 79.0175 27.9924 78.6707 27.8318C78.4883 27.7472 78.3235 27.6462 78.1763 27.5289V30.5464H76.2607V21.781H78.2015V22.2065C78.3423 22.0913 78.4987 21.9918 78.6707 21.9078C79.0175 21.7387 79.3983 21.6541 79.8123 21.6541C80.3959 21.6541 80.9119 21.7937 81.3599 22.0728C81.8167 22.3518 82.1719 22.7324 82.4255 23.2144C82.6879 23.6964 82.8187 24.2461 82.8187 24.8634C82.8187 25.4808 82.6879 26.0305 82.4255 26.5125C82.1719 26.9946 81.8167 27.3751 81.3599 27.6542C80.9119 27.9332 80.3959 28.0728 79.8123 28.0728ZM79.4575 26.3222C79.7363 26.3222 79.9775 26.2588 80.1803 26.132C80.3919 26.0051 80.5567 25.8317 80.6751 25.6119C80.7935 25.392 80.8527 25.1425 80.8527 24.8634C80.8527 24.5759 80.7935 24.3222 80.6751 24.1024C80.5567 23.8825 80.3919 23.7134 80.1803 23.595C79.9775 23.4681 79.7407 23.4047 79.4699 23.4047C79.1995 23.4047 78.9583 23.4681 78.7471 23.595C78.5439 23.7134 78.3835 23.8825 78.2651 24.1024C78.1467 24.3222 78.0875 24.5759 78.0875 24.8634C78.0875 25.1425 78.1423 25.392 78.2523 25.6119C78.3707 25.8317 78.5355 26.0051 78.7471 26.132C78.9583 26.2588 79.1951 26.3222 79.4575 26.3222Z" fill="#AAD9D1"/>
<path d="M84.7182 27.9586C85.0734 28.0516 85.4326 28.0981 85.7962 28.0981C86.5658 28.0981 87.1746 27.9206 87.623 27.5654C88.0794 27.2102 88.3078 26.7324 88.3078 26.132C88.3078 25.743 88.2362 25.43 88.0922 25.1933C87.9486 24.948 87.7626 24.7535 87.5342 24.6098C87.3058 24.466 87.0646 24.3518 86.811 24.2672C86.5574 24.1827 86.3162 24.1108 86.0882 24.0516C85.8598 23.9924 85.6738 23.9248 85.5298 23.8486C85.3862 23.7725 85.3142 23.671 85.3142 23.5442C85.3142 23.4258 85.3694 23.337 85.479 23.2778C85.589 23.2102 85.7538 23.1764 85.9738 23.1764C86.2022 23.1764 86.4346 23.2228 86.6714 23.3159C86.9166 23.4089 87.1366 23.5696 87.331 23.7979L88.4346 22.6816C88.1558 22.3264 87.7922 22.06 87.3438 21.8825C86.9042 21.6964 86.4222 21.6034 85.8978 21.6034C85.399 21.6034 84.9634 21.688 84.5914 21.8571C84.219 22.0262 83.9314 22.2588 83.7286 22.5548C83.5258 22.8423 83.4242 23.1848 83.4242 23.5823C83.4242 23.9544 83.4962 24.263 83.6398 24.5083C83.7834 24.745 83.9698 24.9311 84.1978 25.0664C84.4262 25.2017 84.6674 25.3074 84.921 25.3835C85.1746 25.4596 85.4158 25.5315 85.6442 25.5992C85.8722 25.6584 86.0586 25.7303 86.2022 25.8148C86.3546 25.891 86.4306 26.0051 86.4306 26.1573C86.4306 26.2757 86.367 26.3687 86.2402 26.4364C86.1218 26.504 85.9486 26.5379 85.7202 26.5379C85.3902 26.5379 85.0858 26.4787 84.807 26.3603C84.5278 26.2334 84.2866 26.0601 84.0838 25.8402L82.9802 26.9565C83.1918 27.1848 83.4454 27.3878 83.7414 27.5654C84.0458 27.7345 84.3714 27.8656 84.7182 27.9586Z" fill="#AAD9D1"/>
<path d="M91.8471 28.0854C91.2807 28.0854 90.7775 27.9713 90.3379 27.743C89.9063 27.5062 89.5683 27.1848 89.3231 26.7789C89.0775 26.3645 88.9551 25.891 88.9551 25.3582V21.781H90.8959V25.3328C90.8959 25.5442 90.9295 25.726 90.9975 25.8782C91.0735 26.0305 91.1835 26.1489 91.3271 26.2334C91.4711 26.318 91.6443 26.3603 91.8471 26.3603C92.1347 26.3603 92.3631 26.2715 92.5323 26.0939C92.7015 25.9078 92.7859 25.6542 92.7859 25.3328V21.781H94.7267V25.3455C94.7267 25.8867 94.6043 26.3645 94.3587 26.7789C94.1135 27.1848 93.7755 27.5062 93.3439 27.743C92.9127 27.9713 92.4139 28.0854 91.8471 28.0854Z" fill="#AAD9D1"/>
<path d="M97.6322 21.781H95.6914V27.9459H97.6322V24.3434C97.6322 24.132 97.6746 23.9544 97.759 23.8106C97.8522 23.6668 97.975 23.5569 98.127 23.4808C98.2794 23.3962 98.4526 23.3539 98.647 23.3539C98.9262 23.3539 99.1586 23.4427 99.3446 23.6203C99.5394 23.7894 99.6366 24.0305 99.6366 24.3434V27.9459H101.577V24.3434C101.577 24.132 101.62 23.9544 101.704 23.8106C101.797 23.6668 101.92 23.5569 102.072 23.4808C102.224 23.3962 102.398 23.3539 102.592 23.3539C102.871 23.3539 103.104 23.4427 103.29 23.6203C103.484 23.7894 103.581 24.0305 103.581 24.3434V27.9459H105.523V24.1277C105.523 23.6119 105.413 23.1721 105.193 22.8085C104.981 22.4364 104.689 22.1531 104.317 21.9586C103.954 21.7556 103.535 21.6541 103.061 21.6541C102.579 21.6541 102.144 21.7598 101.755 21.9713C101.502 22.106 101.281 22.2798 101.092 22.4928C100.916 22.27 100.701 22.0877 100.448 21.9459C100.11 21.7514 99.7254 21.6541 99.2942 21.6541C98.8374 21.6541 98.4274 21.7514 98.0638 21.9459C97.9054 22.0268 97.7618 22.1237 97.6322 22.2366V21.781Z" fill="#AAD9D1"/>
</g>
<defs>
<clipPath id="clip0_4090_215">
<rect width="80.8" height="16" fill="white" transform="translate(24.8999 16)"/>
</clipPath>
</defs>
</svg>
