<svg width="24" height="24" viewBox="0 0 24 24" fill="none" xmlns="http://www.w3.org/2000/svg">
<path d="M15.7698 1.11676V4.20108L11.9434 8.02756H11.8552L8.02869 4.20108V1.11561C9.23814 0.681538 10.5404 0.444458 11.8987 0.444458C13.257 0.444458 14.5604 0.681537 15.7698 1.11676Z" fill="url(#paint0_linear_4090_270)"/>
<path d="M15.7698 19.5964V22.6807C14.5604 23.1159 13.257 23.353 11.8987 23.353C10.5404 23.353 9.23814 23.1171 8.02869 22.6819V19.5964L11.8552 15.7699H11.9434L15.7698 19.5964Z" fill="url(#paint1_linear_4090_270)"/>
<path d="M21.6819 5.94196L19.5963 8.02758H15.7687V4.20109L17.8543 2.11548C19.4142 3.06609 20.729 4.3809 21.6819 5.94196Z" fill="url(#paint2_linear_4090_270)"/>
<path d="M8.02762 15.7699V19.5964L5.94087 21.6831C4.38095 20.7302 3.06613 19.4154 2.11438 17.8555L4.19999 15.7699H8.02762Z" fill="url(#paint3_linear_4090_270)"/>
<path d="M21.6819 17.8555C20.7302 19.4154 19.4153 20.7302 17.8554 21.6831L15.7687 19.5964V15.7699H19.5963L21.6819 17.8555Z" fill="url(#paint4_linear_4090_270)"/>
<path d="M8.02762 4.20109V8.02758H4.19999L2.11438 5.94196C3.06728 4.3809 4.3821 3.06609 5.94201 2.11548L8.02762 4.20109Z" fill="url(#paint5_linear_4090_270)"/>
<path d="M23.3518 11.8987C23.3518 13.2571 23.1147 14.5604 22.6795 15.7699H19.5963L15.7687 11.9423V11.8552L19.5963 8.02759H22.6795C23.1147 9.23704 23.3518 10.5404 23.3518 11.8987Z" fill="url(#paint6_linear_4090_270)"/>
<path d="M8.02756 11.8552V11.9423L4.19993 15.7699H1.11676C0.681537 14.5604 0.444458 13.2571 0.444458 11.8987C0.444458 10.5404 0.681537 9.23704 1.11676 8.02759H4.19993L8.02756 11.8552Z" fill="url(#paint7_linear_4090_270)"/>
<defs>
<linearGradient id="paint0_linear_4090_270" x1="15.7698" y1="0.444458" x2="4.92574" y2="8.46786" gradientUnits="userSpaceOnUse">
<stop stop-color="#AAD9D1"/>
<stop offset="1" stop-color="#017373"/>
</linearGradient>
<linearGradient id="paint1_linear_4090_270" x1="15.7698" y1="15.7699" x2="4.92574" y2="23.7933" gradientUnits="userSpaceOnUse">
<stop stop-color="#AAD9D1"/>
<stop offset="1" stop-color="#017373"/>
</linearGradient>
<linearGradient id="paint2_linear_4090_270" x1="21.6819" y1="2.11548" x2="13.2794" y2="8.20664" gradientUnits="userSpaceOnUse">
<stop stop-color="#AAD9D1"/>
<stop offset="1" stop-color="#017373"/>
</linearGradient>
<linearGradient id="paint3_linear_4090_270" x1="8.02762" y1="15.7699" x2="-0.376031" y2="21.8607" gradientUnits="userSpaceOnUse">
<stop stop-color="#AAD9D1"/>
<stop offset="1" stop-color="#017373"/>
</linearGradient>
<linearGradient id="paint4_linear_4090_270" x1="21.6819" y1="15.7699" x2="13.2783" y2="21.8607" gradientUnits="userSpaceOnUse">
<stop stop-color="#AAD9D1"/>
<stop offset="1" stop-color="#017373"/>
</linearGradient>
<linearGradient id="paint5_linear_4090_270" x1="8.02762" y1="2.11548" x2="-0.374911" y2="8.20664" gradientUnits="userSpaceOnUse">
<stop stop-color="#AAD9D1"/>
<stop offset="1" stop-color="#017373"/>
</linearGradient>
<linearGradient id="paint6_linear_4090_270" x1="23.3518" y1="8.02759" x2="12.4218" y2="15.7865" gradientUnits="userSpaceOnUse">
<stop stop-color="#AAD9D1"/>
<stop offset="1" stop-color="#017373"/>
</linearGradient>
<linearGradient id="paint7_linear_4090_270" x1="8.02756" y1="8.02759" x2="-2.90244" y2="15.7865" gradientUnits="userSpaceOnUse">
<stop stop-color="#AAD9D1"/>
<stop offset="1" stop-color="#017373"/>
</linearGradient>
</defs>
</svg>
