<svg width="21" height="20" viewBox="0 0 21 20" fill="none" xmlns="http://www.w3.org/2000/svg">
<path d="M0.881836 11.0121H6.38694C6.56682 14.3203 7.62319 17.3934 9.3262 20C4.83966 19.2978 1.33485 15.607 0.881836 11.0121ZM0.881836 8.98798C1.33485 4.39297 4.83966 0.7021 9.3262 0C7.62319 2.60658 6.56682 5.67972 6.38694 8.98798H0.881836ZM20.8818 8.98798H15.3767C15.1968 5.67972 14.1405 2.60658 12.4375 0C16.924 0.7021 20.4288 4.39297 20.8818 8.98798ZM20.8818 11.0121C20.4288 15.607 16.924 19.2978 12.4375 20C14.1405 17.3934 15.1968 14.3203 15.3767 11.0121H20.8818ZM8.40031 11.0121H13.3633C13.1909 13.8284 12.3035 16.45 10.8818 18.6951C9.46006 16.45 8.57277 13.8284 8.40031 11.0121ZM8.40031 8.98798C8.57277 6.17157 9.46006 3.54997 10.8818 1.30493C12.3035 3.54997 13.1909 6.17157 13.3633 8.98798H8.40031Z" fill="url(#paint0_linear_4090_290)"/>
<defs>
<linearGradient id="paint0_linear_4090_290" x1="20.8818" y1="0" x2="-7.54133" y2="20.6005" gradientUnits="userSpaceOnUse">
<stop stop-color="#AAD9D1"/>
<stop offset="1" stop-color="#017373"/>
</linearGradient>
</defs>
</svg>
