<svg width="19" height="19" viewBox="0 0 19 19" fill="none" xmlns="http://www.w3.org/2000/svg">
<path d="M18.1143 9.46688V9.47136H15.3145V9.39978C15.3145 6.07211 12.6168 3.37436 9.28999 3.37436C9.2542 3.37436 9.21841 3.37436 9.18262 3.37526V0.552246C14.1057 0.561194 18.0964 4.54563 18.1143 9.46688Z" fill="url(#paint0_linear_4090_435)"/>
<path d="M18.1125 9.35596C18.1125 9.30049 18.1098 9.24591 18.1089 9.19043C18.1107 9.24591 18.1116 9.30049 18.1125 9.35596Z" fill="url(#paint1_linear_4090_435)"/>
<path d="M18.1072 9.14574C18.1054 9.07863 18.1 9.01242 18.0964 8.94531C18.0964 8.95516 18.0982 8.9641 18.0982 8.97395C18.1027 9.03121 18.1054 9.08848 18.1072 9.14574Z" fill="url(#paint2_linear_4090_435)"/>
<path d="M18.0703 8.61767C18.0703 8.61767 18.0703 8.61589 18.0703 8.61499C18.0721 8.63825 18.0757 8.66241 18.0775 8.68568C18.0766 8.67136 18.0748 8.65794 18.073 8.64452C18.0721 8.63557 18.0712 8.62662 18.0703 8.61767Z" fill="url(#paint3_linear_4090_435)"/>
<path d="M18.0704 8.6151C18.0668 8.57394 18.0614 8.53367 18.0579 8.49341C18.0605 8.5113 18.0623 8.5283 18.065 8.5462C18.0677 8.56946 18.0695 8.59183 18.0713 8.6151H18.0704Z" fill="url(#paint4_linear_4090_435)"/>
<path d="M18.0785 8.70011C18.0785 8.69474 18.0776 8.69026 18.0776 8.68579C18.0803 8.70458 18.0821 8.72337 18.083 8.74216C18.0839 8.75379 18.0848 8.76453 18.0848 8.77616C18.083 8.75111 18.0812 8.72516 18.0785 8.70011Z" fill="url(#paint5_linear_4090_435)"/>
<path d="M18.0078 8.11669C18.0069 8.11043 18.006 8.10416 18.0051 8.0979C18.0051 8.10237 18.0069 8.10685 18.0069 8.11043C18.0069 8.11222 18.0069 8.11401 18.0069 8.11669H18.0078Z" fill="url(#paint6_linear_4090_435)"/>
<path d="M18.0078 8.11938C18.0078 8.11938 18.0078 8.11759 18.0078 8.1167C18.0168 8.17754 18.0275 8.23839 18.0347 8.30013V8.30371C18.0257 8.24197 18.0177 8.18112 18.0078 8.11938Z" fill="url(#paint7_linear_4090_435)"/>
<path d="M18.1143 9.46691C18.1143 9.42933 18.1134 9.39264 18.1125 9.35596C18.1125 9.38191 18.1143 9.40696 18.1143 9.43291V9.46691Z" fill="url(#paint8_linear_4090_435)"/>
<path d="M18.1143 18.4192V18.4478H15.3136C15.3145 18.4272 15.3145 18.4067 15.3145 18.3861C15.3145 17.6622 15.1866 16.9679 14.9521 16.3245C14.9468 16.3075 14.9405 16.2905 14.9333 16.2735C14.5951 15.368 14.0439 14.5654 13.3415 13.9265C13.329 13.9149 13.3165 13.9041 13.3039 13.8934C12.2383 12.9405 10.8317 12.3607 9.28999 12.3607C9.2542 12.3607 9.21841 12.3607 9.18262 12.3616V9.47144C11.365 9.47501 13.3639 10.2606 14.9145 11.5625C14.9208 11.567 14.9271 11.5724 14.9333 11.5786C15.718 12.2399 16.3873 13.0344 16.9054 13.9265C16.9126 13.9373 16.9188 13.948 16.9251 13.9596C17.6821 15.2723 18.1143 16.7952 18.1143 18.4192Z" fill="url(#paint9_linear_4090_435)"/>
<path d="M9.1665 9.46688V9.47136H6.36675V9.43288C6.36675 7.8885 5.78514 6.48102 4.83042 5.41445C4.82057 5.40282 4.81073 5.39208 4.80089 5.38134C4.1307 4.64405 3.27977 4.07408 2.31879 3.74122C2.30447 3.73496 2.29015 3.73049 2.27494 3.72512C1.66828 3.52021 1.01868 3.40837 0.342229 3.40837C0.301069 3.40837 0.25991 3.40837 0.21875 3.41016V0.552246H0.985572C2.3161 0.664093 3.56342 1.06853 4.66399 1.70024C4.68367 1.71098 4.70246 1.72172 4.72125 1.73335C5.6384 2.26842 6.45175 2.96187 7.12462 3.77612C7.13804 3.79312 7.15146 3.81012 7.16578 3.82712C8.41667 5.36524 9.1665 7.32837 9.1665 9.46688Z" fill="url(#paint10_linear_4090_435)"/>
<path d="M9.18268 15.4906V18.3807H9.16658C7.54882 18.3807 6.03039 17.9512 4.72134 17.1996C4.32406 16.9723 3.94557 16.7146 3.58945 16.4301C3.10806 16.0462 2.66783 15.6141 2.27592 15.1407C1.96096 14.7613 1.67642 14.3551 1.42767 13.9265C0.66443 12.6166 0.22599 11.0955 0.219727 9.47144H3.26464C3.26464 10.1541 3.37918 10.8109 3.58945 11.422C3.85341 12.1924 4.26858 12.8922 4.80097 13.4854C4.93877 13.6393 5.08462 13.7869 5.23762 13.9265C5.79507 14.4321 6.44736 14.8356 7.16586 15.1058C7.79489 15.3438 8.47402 15.4781 9.18268 15.4906Z" fill="url(#paint11_linear_4090_435)"/>
<defs>
<linearGradient id="paint0_linear_4090_435" x1="18.1143" y1="0.552246" x2="5.43326" y2="9.75607" gradientUnits="userSpaceOnUse">
<stop stop-color="#AAD9D1"/>
<stop offset="1" stop-color="#017373"/>
</linearGradient>
<linearGradient id="paint1_linear_4090_435" x1="18.1125" y1="9.19043" x2="18.1047" y2="9.19055" gradientUnits="userSpaceOnUse">
<stop stop-color="#AAD9D1"/>
<stop offset="1" stop-color="#017373"/>
</linearGradient>
<linearGradient id="paint2_linear_4090_435" x1="18.1072" y1="8.94531" x2="18.0839" y2="8.94621" gradientUnits="userSpaceOnUse">
<stop stop-color="#AAD9D1"/>
<stop offset="1" stop-color="#017373"/>
</linearGradient>
<linearGradient id="paint3_linear_4090_435" x1="18.0775" y1="8.61499" x2="18.062" y2="8.61612" gradientUnits="userSpaceOnUse">
<stop stop-color="#AAD9D1"/>
<stop offset="1" stop-color="#017373"/>
</linearGradient>
<linearGradient id="paint4_linear_4090_435" x1="18.0713" y1="8.49341" x2="18.0424" y2="8.49572" gradientUnits="userSpaceOnUse">
<stop stop-color="#AAD9D1"/>
<stop offset="1" stop-color="#017373"/>
</linearGradient>
<linearGradient id="paint5_linear_4090_435" x1="18.0848" y1="8.68579" x2="18.0693" y2="8.68668" gradientUnits="userSpaceOnUse">
<stop stop-color="#AAD9D1"/>
<stop offset="1" stop-color="#017373"/>
</linearGradient>
<linearGradient id="paint6_linear_4090_435" x1="18.0078" y1="8.0979" x2="18.0021" y2="8.0985" gradientUnits="userSpaceOnUse">
<stop stop-color="#AAD9D1"/>
<stop offset="1" stop-color="#017373"/>
</linearGradient>
<linearGradient id="paint7_linear_4090_435" x1="18.0347" y1="8.1167" x2="17.9771" y2="8.12269" gradientUnits="userSpaceOnUse">
<stop stop-color="#AAD9D1"/>
<stop offset="1" stop-color="#017373"/>
</linearGradient>
<linearGradient id="paint8_linear_4090_435" x1="18.1143" y1="9.35596" x2="18.1105" y2="9.356" gradientUnits="userSpaceOnUse">
<stop stop-color="#AAD9D1"/>
<stop offset="1" stop-color="#017373"/>
</linearGradient>
<linearGradient id="paint9_linear_4090_435" x1="18.1143" y1="9.47144" x2="5.37737" y2="18.6569" gradientUnits="userSpaceOnUse">
<stop stop-color="#AAD9D1"/>
<stop offset="1" stop-color="#017373"/>
</linearGradient>
<linearGradient id="paint10_linear_4090_435" x1="9.1665" y1="0.552246" x2="-3.52157" y2="9.77781" gradientUnits="userSpaceOnUse">
<stop stop-color="#AAD9D1"/>
<stop offset="1" stop-color="#017373"/>
</linearGradient>
<linearGradient id="paint11_linear_4090_435" x1="9.18268" y1="9.47144" x2="-3.50229" y2="18.7206" gradientUnits="userSpaceOnUse">
<stop stop-color="#AAD9D1"/>
<stop offset="1" stop-color="#017373"/>
</linearGradient>
</defs>
</svg>
