<svg width="21" height="21" viewBox="0 0 21 21" fill="none" xmlns="http://www.w3.org/2000/svg">
<path d="M11.2364 17.4416C11.7428 16.0341 12.5597 14.7098 13.6863 13.577L13.7068 13.5565C14.8351 12.4281 16.1531 11.6094 17.5553 11.0985C18.4286 10.7809 19.3341 10.5822 20.2458 10.5044C19.3368 10.4543 18.4339 10.2834 17.5633 9.99346C16.1021 9.50849 14.7331 8.6862 13.5735 7.52657C12.4148 6.36784 11.5916 4.99704 11.1066 3.53677C10.7952 2.60084 10.6225 1.62732 10.5876 0.648438L10.5501 0.686018C10.483 1.65774 10.2798 2.62231 9.94162 3.55019C9.43249 4.94604 8.61556 6.25957 7.49352 7.38519L7.48546 7.39325C6.36431 8.5144 5.05436 9.33133 3.6612 9.84225C2.72705 10.1849 1.75622 10.3898 0.778234 10.4579L0.766602 10.4695C1.7437 10.5044 2.71453 10.6771 3.64867 10.9867C5.11073 11.4725 6.48332 12.2948 7.64384 13.4562C8.80526 14.6177 9.62666 15.9885 10.1125 17.4514C10.423 18.3856 10.5957 19.3564 10.6306 20.3335L10.6369 20.3272C10.6986 19.3492 10.8981 18.3766 11.2346 17.4407L11.2364 17.4416Z" fill="url(#paint0_linear_4090_365)"/>
<defs>
<linearGradient id="paint0_linear_4090_365" x1="20.2458" y1="0.648438" x2="-7.63698" y2="20.646" gradientUnits="userSpaceOnUse">
<stop stop-color="#AAD9D1"/>
<stop offset="1" stop-color="#017373"/>
</linearGradient>
</defs>
</svg>
